<?xml version="1.0" encoding="UTF-8" standalone="no"?>
<svg width="30px" height="30px" viewBox="0 0 30 30" version="1.1" xmlns="http://www.w3.org/2000/svg" xmlns:xlink="http://www.w3.org/1999/xlink">
    <!-- Generator: Sketch 3.7.2 (28276) - http://www.bohemiancoding.com/sketch -->
    <title>add</title>
    <desc>Created with Sketch.</desc>
    <defs></defs>
    <g id="Page-1" stroke="none" stroke-width="1" fill="none" fill-rule="evenodd">
        <g id="add" fill="#000000">
            <path d="M15,5 C9.47785788,5 5,9.47785788 5,15 C5,20.523172 9.47785788,25 15,25 C20.523172,25 25,20.523172 25,15 C25,9.47785788 20.523172,5 15,5 L15,5 Z M16.5378018,15.0823328 L18.7015171,17.2458548 C19.0994943,17.6437965 19.0994943,18.2898799 18.7015171,18.6878216 L18.6866501,18.7015437 C18.2886729,19.0994854 17.6436753,19.0994854 17.2456981,18.7015437 L15.0819828,16.5380217 C15.0362383,16.4922813 14.9630471,16.4922813 14.9184462,16.5380217 L12.7535873,18.7015437 C12.3556101,19.0994854 11.7106125,19.0994854 11.3126353,18.7015437 L11.2977683,18.6866781 C10.9009347,18.2887364 10.9009347,17.6437965 11.2989119,17.2458548 L13.4626272,15.0823328 C13.5072281,15.0365923 13.5072281,14.9634077 13.4626272,14.9188107 L11.2989119,12.7541452 C10.8997911,12.3562035 10.9009347,11.7112636 11.2989119,11.3133219 L11.3137789,11.2984563 C11.7117561,10.9005146 12.3567537,10.9005146 12.7535873,11.2984563 L14.9184462,13.4631218 C14.9630471,13.5077187 15.0362383,13.5077187 15.0819828,13.4631218 L17.2456981,11.2984563 C17.6436753,10.9005146 18.2898165,10.9005146 18.6877937,11.2995998 L18.7015171,11.3133219 C19.0994943,11.7112636 19.0994943,12.3562035 18.7015171,12.7541452 L16.5378018,14.9188107 C16.4932009,14.9634077 16.4932009,15.0365923 16.5378018,15.0823328 L16.5378018,15.0823328 Z" id="deletecircle" transform="translate(15.000000, 15.000000) rotate(-45.000000) translate(-15.000000, -15.000000) "></path>
        </g>
    </g>
</svg>