<?xml version="1.0" encoding="UTF-8" standalone="no"?>
<svg width="30px" height="30px" viewBox="0 0 30 30" version="1.1" xmlns="http://www.w3.org/2000/svg" xmlns:xlink="http://www.w3.org/1999/xlink">
    <!-- Generator: Sketch 3.7.2 (28276) - http://www.bohemiancoding.com/sketch -->
    <title>insert</title>
    <desc>Created with Sketch.</desc>
    <defs></defs>
    <g id="Page-1" stroke="none" stroke-width="1" fill="none" fill-rule="evenodd">
        <g id="insert" fill="#000000">
            <path d="M12.488,9 C11.648,9 11,9.672 11,10.512 C11,10.872 11.12,11.16 11.36,11.472 L13.76,14.472 L11.432,17.376 C11.216,17.64 11.024,18 11.024,18.36 C11.024,19.176 11.648,19.872 12.464,19.872 C13.016,19.872 13.52,19.56 13.832,19.152 L16.736,15.432 C16.976,15.12 17.144,14.832 17.144,14.448 C17.144,14.064 16.976,13.776 16.736,13.464 L13.736,9.624 C13.472,9.288 13.04,9 12.488,9 L12.488,9 Z" id="›"></path>
        </g>
    </g>
</svg>