<?xml version="1.0" encoding="UTF-8" standalone="no"?>
<svg width="30px" height="30px" viewBox="0 0 30 30" version="1.1" xmlns="http://www.w3.org/2000/svg" xmlns:xlink="http://www.w3.org/1999/xlink">
    <!-- Generator: Sketch 3.7.2 (28276) - http://www.bohemiancoding.com/sketch -->
    <title>unlink</title>
    <desc>Created with Sketch.</desc>
    <defs></defs>
    <g id="Page-1" stroke="none" stroke-width="1" fill="none" fill-rule="evenodd">
        <g id="unlink">
            <path d="M12.983,14.2683002 C11.722,13.7433002 10.218,13.9873002 9.193,15.0133002 L6.053,18.1523002 C4.649,19.5563002 4.649,21.8323002 6.053,23.2363002 L6.3,23.4833002 C7.704,24.8873002 9.98,24.8873002 11.384,23.4833002 L14.524,20.3443002 C15.55,19.3173002 15.794,17.8113002 15.267,16.5493002 C15.136,16.2373002 13.295,14.3983002 12.983,14.2683002 Z M11.284,16.3833002 C11.376,16.4753002 11.4,16.6183002 11.343,16.7363002 C11.143,17.1463002 11.201,17.6483002 11.543,17.9903002 C11.885,18.3313002 12.386,18.3903002 12.797,18.1903002 C12.914,18.1333002 13.054,18.1533002 13.146,18.2453002 C13.264,18.3643002 13.272,18.5633002 13.154,18.6813002 L9.921,21.9143002 C9.335,22.5003002 8.385,22.5003002 7.799,21.9143002 L7.623,21.7373002 C7.037,21.1513002 7.037,20.2023002 7.623,19.6163002 L10.856,16.3833002 C10.974,16.2653002 11.165,16.2653002 11.284,16.3833002 L11.284,16.3833002 Z" id="link" fill="#231F1F"></path>
            <path d="M21.983,5.26830017 C20.722,4.74330017 19.218,4.98730017 18.193,6.01330017 L15.053,9.15230017 C13.649,10.5563002 13.649,12.8323002 15.053,14.2363002 L15.3,14.4833002 C16.704,15.8873002 18.98,15.8873002 20.384,14.4833002 L23.524,11.3443002 C24.55,10.3173002 24.794,8.81130017 24.267,7.54930017 C24.136,7.23730017 22.295,5.39830017 21.983,5.26830017 Z M20.284,7.38330017 C20.376,7.47530017 20.4,7.61830017 20.343,7.73630017 C20.143,8.14630017 20.201,8.64830017 20.543,8.99030017 C20.885,9.33130017 21.386,9.39030017 21.797,9.19030017 C21.914,9.13330017 22.054,9.15330017 22.146,9.24530017 C22.264,9.36430017 22.272,9.56330017 22.154,9.68130017 L18.921,12.9143002 C18.335,13.5003002 17.385,13.5003002 16.799,12.9143002 L16.623,12.7373002 C16.037,12.1513002 16.037,11.2023002 16.623,10.6163002 L19.856,7.38330017 C19.974,7.26530017 20.165,7.26530017 20.284,7.38330017 L20.284,7.38330017 Z" id="link" fill="#231F1F" transform="translate(19.268363, 10.268150) rotate(-180.000000) translate(-19.268363, -10.268150) "></path>
            <path d="M11,8.5 L11,5.5" id="Line" stroke="#000000" stroke-width="2" stroke-linecap="round"></path>
            <path d="M8.09901953,12 L5.45234188,12" id="Line" stroke="#000000" stroke-width="2" stroke-linecap="round"></path>
            <path d="M17,23.5 L17,20.5" id="Line" stroke="#000000" stroke-width="2" stroke-linecap="round" transform="translate(18.000000, 22.000000) rotate(-180.000000) translate(-18.000000, -22.000000) "></path>
            <path d="M24.5476581,16 L21.9009805,16" id="Line" stroke="#000000" stroke-width="2" stroke-linecap="round" transform="translate(23.224319, 17.000000) rotate(-180.000000) translate(-23.224319, -17.000000) "></path>
        </g>
    </g>
</svg>