<?xml version="1.0" encoding="UTF-8" standalone="no"?>
<svg width="30px" height="30px" viewBox="0 0 30 30" version="1.1" xmlns="http://www.w3.org/2000/svg" >
    
    <g id="Page-1" stroke="none" stroke-width="1"  fill-rule="evenodd">
        <g id="approve" >
            <path d="M14.999485,5 C9.47705855,5 5,9.47785788 5,15 C5,20.523172 9.47705855,25 14.999485,25 C20.5229414,25 25,20.523172 25,15 C25,9.47785788 20.5229414,5 14.999485,5 L14.999485,5 Z M14.4916707,17.775747 C14.1841643,18.074751 13.6851569,18.074751 13.3776505,17.775747 L11.2941566,15.7498601 C10.9019478,15.3684957 10.9019478,14.7507926 11.2941566,14.3703234 L11.3088874,14.3559999 C11.7001755,13.9755306 12.3354432,13.9755306 12.7267313,14.3568951 L13.9346606,15.5323212 L17.2739592,12.2853519 C17.666168,11.9048827 18.300515,11.9048827 18.6918031,12.2853519 L18.7065339,12.2996755 C19.097822,12.6801447 19.097822,13.2969525 18.7065339,13.6774218 L14.4916707,17.775747 Z" id="checkcircle"></path>
        </g>
    </g>
</svg>