<?xml version="1.0" encoding="UTF-8" standalone="no"?>
<svg width="30px" height="30px" viewBox="0 0 30 30" version="1.1" xmlns="http://www.w3.org/2000/svg" xmlns:xlink="http://www.w3.org/1999/xlink">
    <!-- Generator: sketchtool 3.8.2 (29753) - http://www.bohemiancoding.com/sketch -->
    <title>check</title>
    <desc>Created with sketchtool.</desc>
    <defs></defs>
    <g id="Page-1" stroke="none" stroke-width="1" fill="none" fill-rule="evenodd">
        <g id="check" fill="#888888">
            <path d="M15,4.767 C9.47682801,4.767 5,9.24462731 5,14.7664851 C5,20.2893727 9.47682801,24.767 15,24.767 C20.523172,24.767 25,20.2893727 25,14.7664851 C25,9.24462731 20.523172,4.767 15,4.767 L15,4.767 Z M15.0484779,22.767 C10.6305441,22.767 7.049,19.1854559 7.049,14.7664779 C7.049,10.3485441 10.6305441,6.767 15.0484779,6.767 C19.4674559,6.767 23.049,10.3485441 23.049,14.7664779 C23.049,19.1854559 19.4674559,22.767 15.0484779,22.767 Z M11.2941862,15.5168182 C10.9019379,15.1363419 10.9019379,14.5186273 11.2941862,14.1372558 C11.700246,13.7433509 12.3346569,13.7433509 12.7269052,14.1238272 L13.9349562,15.2992753 L17.274591,12.0522454 C17.6659185,11.6717691 18.3012501,11.6717691 18.6925776,12.0531407 C19.0977167,12.4479408 19.0977167,13.0647601 18.7063892,13.4452365 L14.4920223,17.5427428 C14.184485,17.8417524 13.6854273,17.8417524 13.37789,17.5427428 L11.2941862,15.5168182 Z" id="checkocircle"></path>
        </g>
    </g>
</svg>