<?xml version="1.0" encoding="UTF-8" standalone="no"?>
<svg width="30px" height="30px" viewBox="0 0 30 30" version="1.1" xmlns="http://www.w3.org/2000/svg" xmlns:xlink="http://www.w3.org/1999/xlink">
    <!-- Generator: sketchtool 3.8.2 (29753) - http://www.bohemiancoding.com/sketch -->
    <title>contract</title>
    <desc>Created with sketchtool.</desc>
    <defs></defs>
    <g id="Page-1" stroke="none" stroke-width="1" fill="none" fill-rule="evenodd">
        <g id="contract" fill="#888888">
            <path d="M10,9.3525041 L10,6.39390138 C10,6.01852745 9.54593657,5.830358 9.28082522,6.09572518 L8.51152029,6.86673743 C8.34666924,7.03078259 8.08059385,7.03078259 7.91574279,6.86673743 L6.2662682,5.21567114 C5.9789839,4.92810962 5.51335197,4.92810962 5.22606768,5.21567114 L5.21546322,5.22628582 C4.92817893,5.51384734 4.92817893,5.97992859 5.21546322,6.26749011 L6.86493782,7.9185564 C7.02978887,8.08260156 7.02978887,8.34989868 6.86493782,8.51394384 L6.09948906,9.28013124 C5.83437771,9.54549841 6.02236576,10 6.39737781,10 L9.35312831,10 C9.70982358,10 10,9.70954357 10,9.3525041 Z M10,20.6474959 L10,23.6060986 C10,23.9814725 9.54593657,24.169642 9.28082522,23.9042748 L8.51152029,23.1332626 C8.34666924,22.9692174 8.08059385,22.9692174 7.91574279,23.1332626 L6.2662682,24.7843289 C5.9789839,25.0718904 5.51335197,25.0718904 5.22606768,24.7843289 L5.21546322,24.7737142 C4.92817893,24.4861527 4.92817893,24.0200714 5.21546322,23.7325099 L6.86493782,22.0814436 C7.02978887,21.9173984 7.02978887,21.6501013 6.86493782,21.4860562 L6.09948906,20.7198688 C5.83437771,20.4545016 6.02236576,20 6.39737781,20 L9.35312831,20 C9.70982358,20 10,20.2904564 10,20.6474959 Z M20,9.3525041 L20,6.39390138 C20,6.01852745 20.4540634,5.830358 20.7191748,6.09572518 L21.4884797,6.86673743 C21.6533308,7.03078259 21.9194062,7.03078259 22.0842572,6.86673743 L23.7337318,5.21567114 C24.0210161,4.92810962 24.486648,4.92810962 24.7739323,5.21567114 L24.7845368,5.22628582 C25.0718211,5.51384734 25.0718211,5.97992859 24.7845368,6.26749011 L23.1350622,7.9185564 C22.9702111,8.08260156 22.9702111,8.34989868 23.1350622,8.51394384 L23.9005109,9.28013124 C24.1656223,9.54549841 23.9776342,10 23.6026222,10 L20.6468717,10 C20.2901764,10 20,9.70954357 20,9.3525041 Z M20,20.6474959 L20,23.6060986 C20,23.9814725 20.4540634,24.169642 20.7191748,23.9042748 L21.4884797,23.1332626 C21.6533308,22.9692174 21.9194062,22.9692174 22.0842572,23.1332626 L23.7337318,24.7843289 C24.0210161,25.0718904 24.486648,25.0718904 24.7739323,24.7843289 L24.7845368,24.7737142 C25.0718211,24.4861527 25.0718211,24.0200714 24.7845368,23.7325099 L23.1350622,22.0814436 C22.9702111,21.9173984 22.9702111,21.6501013 23.1350622,21.4860562 L23.9005109,20.7198688 C24.1656223,20.4545016 23.9776342,20 23.6026222,20 L20.6468717,20 C20.2901764,20 20,20.2904564 20,20.6474959 Z M17.7801646,19 L12.2198354,19 C11.5460751,19 11,18.2959752 11,17.4273327 L11,12.5726673 C11,11.7040248 11.5460751,11 12.2198354,11 L17.7801646,11 C18.4539249,11 19,11.7040248 19,12.5726673 L19,17.4273327 C19,18.2959752 18.4539249,19 17.7801646,19 Z" id="exitfullscreen"></path>
        </g>
    </g>
</svg>