<?xml version="1.0" encoding="UTF-8" standalone="no"?>
<svg width="30px" height="30px" viewBox="0 0 30 30" version="1.1" xmlns="http://www.w3.org/2000/svg" >
    
    <g id="Page-1" stroke="none" stroke-width="1"  fill-rule="evenodd">
        <g id="cross" >
            <path d="M15,5 C9.47682801,5 5,9.47762731 5,14.9994851 C5,20.5223727 9.47682801,25 15,25 C20.523172,25 25,20.5223727 25,14.9994851 C25,9.47762731 20.523172,5 15,5 L15,5 Z M15,23 C10.5823545,23 7,19.4184559 7,14.9994779 C7,10.5815441 10.5823545,7 15,7 C19.4186896,7 23,10.5815441 23,14.9994779 C23,19.4184559 19.4186896,23 15,23 Z M16.5379778,15.0814079 C16.4922365,15.0368086 16.4922365,14.96362 16.5379778,14.9178772 L18.7015384,12.7542392 C19.0994872,12.3562762 19.0994872,11.7113017 18.7015384,11.3133387 L18.687816,11.2984723 C18.2898673,10.9005092 17.6437722,10.9005092 17.2458235,11.2984723 L15.0822628,13.4621102 C15.0365216,13.5078531 14.9633356,13.5078531 14.9187379,13.4621102 L12.7540337,11.2984723 C12.3572285,10.9005092 11.7111335,10.9005092 11.3131847,11.2984723 L11.2994623,11.3121951 C10.90037,11.7101581 10.90037,12.3562762 11.2983188,12.7542392 L13.463023,14.9178772 C13.5076207,14.96362 13.5076207,15.0368086 13.463023,15.0814079 L11.2983188,17.2461895 C10.9015135,17.6430089 10.90037,18.2879834 11.2983188,18.68709 L11.3131847,18.7008129 C11.7111335,19.0987759 12.356085,19.0999194 12.7540337,18.7019564 L14.9187379,16.5371749 C14.9633356,16.4925756 15.0365216,16.4925756 15.0822628,16.5371749 L17.2458235,18.7019564 C17.6437722,19.0987759 18.2887237,19.0999194 18.6866725,18.7019564 L18.7015384,18.68709 C19.0994872,18.289127 19.0994872,17.6441525 18.7015384,17.2461895 L16.5379778,15.0814079 Z" id="deleteocircle"></path>
        </g>
    </g>
</svg>