<?xml version="1.0" encoding="UTF-8" standalone="no"?>
<svg width="30px" height="30px" viewBox="0 0 30 30" version="1.1" xmlns="http://www.w3.org/2000/svg" xmlns:xlink="http://www.w3.org/1999/xlink">
    <!-- Generator: sketchtool 3.8.1 (29687) - http://www.bohemiancoding.com/sketch -->
    <title>expand</title>
    <desc>Created with sketchtool.</desc>
    <defs></defs>
    <g id="Page-1" stroke="none" stroke-width="1" fill="none" fill-rule="evenodd">
        <g id="expand" fill="#AAAAAA">
            <path d="M25,23.9640027 L25,19.2300851 C25,18.6298069 24.2750776,18.3286329 23.8500517,18.7529674 L22.6184074,19.9866425 C22.3557394,20.2495229 21.9286453,20.2495229 21.6649431,19.9866425 L19.0258532,17.3454187 C18.5667011,16.8848604 17.8210962,16.8848604 17.3619442,17.3454187 L17.344364,17.3619781 C16.885212,17.8215013 16.885212,18.5677092 17.344364,19.0282674 L19.983454,21.6694913 C20.2471562,21.9323717 20.2471562,22.3598111 19.983454,22.6226915 L18.7590486,23.8491219 C18.3350569,24.2734565 18.6349535,25 19.2357808,25 L23.9648397,25 C24.5367115,25 25,24.5363369 25,23.9640027 Z M6.03599728,25 L10.7699149,25 C11.3701931,25 11.6713671,24.2740434 11.2459976,23.8500517 L10.0133575,22.6184074 C9.75047705,22.3547053 9.75047705,21.9286453 10.0133575,21.6649431 L12.6545813,19.0258532 C13.1151396,18.5667011 13.1151396,17.8210962 12.6545813,17.36091 L12.6380219,17.344364 C12.1774637,16.885212 11.4322908,16.885212 10.9717326,17.344364 L8.33050875,19.983454 C8.06762832,20.2471562 7.64018888,20.2471562 7.37730845,19.983454 L6.1508781,18.7590486 C5.72654355,18.3340228 5,18.6349535 5,19.2347466 L5,23.9648397 C5,24.5367115 5.46366312,25 6.03599728,25 Z M5,6.03506275 L5,10.7694398 C5,11.3708112 5.72588619,11.6709794 6.15087084,11.2466037 L7.38239571,10.013844 C7.64503829,9.74990296 8.07209099,9.74990296 8.33473358,10.013844 L10.9735677,12.6553241 C11.4337092,13.114892 12.1792419,13.114892 12.6383494,12.6553241 L12.6548939,12.637728 C13.1150354,12.1781602 13.1150354,11.4318799 12.6548939,10.971277 L10.0160597,8.32979687 C9.75341713,8.06689093 9.75341713,7.63941001 10.0160597,7.37650408 L11.2413804,6.15098978 C11.665331,5.72557899 11.3654635,5 10.7646945,5 L6.03505994,5 C5.46427764,5 5,5.46370811 5,6.03506275 Z M23.9640027,5 L19.2300851,5 C18.6298069,5 18.3286329,5.72588619 18.7529674,6.14983682 L19.9866425,7.38136168 C20.2495229,7.64503829 20.2495229,8.07105697 19.9866425,8.33473358 L17.3454187,10.9735677 C16.8848604,11.4337092 16.8848604,12.1782079 17.3454187,12.6383494 L17.3619781,12.6548939 C17.8225363,13.1150354 18.5677092,13.1150354 19.0282674,12.6548939 L21.6694913,10.0160597 C21.9323717,9.75341713 22.3598111,9.75341713 22.6226915,10.0160597 L23.8491219,11.2403464 C24.2734565,11.665331 25,11.3644295 25,10.7646945 L25,6.03505994 C25,5.46324361 24.5363369,5 23.9640027,5 Z"></path>
        </g>
    </g>
</svg>