<?xml version="1.0" encoding="UTF-8" standalone="no"?>
<svg width="30px" height="30px" viewBox="0 0 30 30" version="1.1" xmlns="http://www.w3.org/2000/svg" xmlns:xlink="http://www.w3.org/1999/xlink">
    <!-- Generator: sketchtool 3.8.2 (29753) - http://www.bohemiancoding.com/sketch -->
    <title>header3</title>
    <desc>Created with sketchtool.</desc>
    <defs></defs>
    <g id="Page-1" stroke="none" stroke-width="1" fill="none" fill-rule="evenodd">
        <g id="header3" fill="#888888">
            <path d="M4.016,22.296 C4.016,23.328 4.832,24.144 5.864,24.144 C6.896,24.144 7.712,23.328 7.712,22.296 L7.712,17.256 L14.528,17.256 L14.528,22.296 C14.528,23.328 15.344,24.144 16.376,24.144 C17.408,24.144 18.224,23.328 18.224,22.296 L18.224,8.904 C18.224,7.872 17.408,7.056 16.376,7.056 C15.344,7.056 14.528,7.872 14.528,8.904 L14.528,13.848 L7.712,13.848 L7.712,8.904 C7.712,7.872 6.896,7.056 5.864,7.056 C4.832,7.056 4.016,7.872 4.016,8.904 L4.016,22.296 Z" id="H"></path>
            <path d="M23.732,16.144 C25.604,16.144 26.756,14.98 26.756,13.396 L26.756,13.372 C26.756,11.812 25.64,11.212 24.5,11.02 L26.144,9.448 C26.48,9.124 26.696,8.872 26.696,8.416 C26.696,7.912 26.3,7.6 25.76,7.6 L21.668,7.6 C21.236,7.6 20.876,7.96 20.876,8.392 C20.876,8.824 21.236,9.184 21.668,9.184 L24.248,9.184 L22.616,10.828 C22.328,11.116 22.22,11.332 22.22,11.584 C22.22,12.016 22.58,12.376 23.012,12.376 L23.3,12.376 C24.332,12.376 24.944,12.76 24.944,13.444 L24.944,13.468 C24.944,14.092 24.452,14.488 23.756,14.488 C23.096,14.488 22.592,14.272 22.112,13.864 C21.968,13.744 21.788,13.636 21.524,13.636 C21.044,13.636 20.636,14.044 20.636,14.524 C20.636,14.788 20.78,15.04 20.948,15.184 C21.632,15.772 22.532,16.144 23.732,16.144 L23.732,16.144 Z" id="3"></path>
        </g>
    </g>
</svg>