<?xml version="1.0" encoding="UTF-8" standalone="no"?>
<svg width="30px" height="30px" viewBox="0 0 30 30" version="1.1" xmlns="http://www.w3.org/2000/svg" xmlns:xlink="http://www.w3.org/1999/xlink">
    <!-- Generator: sketchtool 3.8.2 (29753) - http://www.bohemiancoding.com/sketch -->
    <title>header1</title>
    <desc>Created with sketchtool.</desc>
    <defs></defs>
    <g id="Page-1" stroke="none" stroke-width="1" fill="none" fill-rule="evenodd">
        <g id="header1" fill="#AAAAAA">
            <path d="M5.016,22.296 C5.016,23.328 5.832,24.144 6.864,24.144 C7.896,24.144 8.712,23.328 8.712,22.296 L8.712,17.256 L15.528,17.256 L15.528,22.296 C15.528,23.328 16.344,24.144 17.376,24.144 C18.408,24.144 19.224,23.328 19.224,22.296 L19.224,8.904 C19.224,7.872 18.408,7.056 17.376,7.056 C16.344,7.056 15.528,7.872 15.528,8.904 L15.528,13.848 L8.712,13.848 L8.712,8.904 C8.712,7.872 7.896,7.056 6.864,7.056 C5.832,7.056 5.016,7.872 5.016,8.904 L5.016,22.296 Z" id="H"></path>
            <path d="M23.136,15.16 C23.136,15.664 23.544,16.072 24.048,16.072 C24.552,16.072 24.96,15.664 24.96,15.16 L24.96,8.392 C24.96,7.888 24.552,7.48 24.048,7.48 L24.024,7.48 C23.772,7.48 23.508,7.54 23.16,7.636 L21.972,7.984 C21.6,8.092 21.36,8.404 21.36,8.776 C21.36,9.208 21.732,9.568 22.164,9.568 C22.26,9.568 22.392,9.544 22.488,9.52 L23.136,9.352 L23.136,15.16 Z" id="1"></path>
        </g>
    </g>
</svg>