<?xml version="1.0" encoding="UTF-8" standalone="no"?>
<svg width="30px" height="30px" viewBox="0 0 30 30" version="1.1" xmlns="http://www.w3.org/2000/svg" xmlns:xlink="http://www.w3.org/1999/xlink">
    <!-- Generator: sketchtool 3.8.2 (29753) - http://www.bohemiancoding.com/sketch -->
    <title>img</title>
    <desc>Created with sketchtool.</desc>
    <defs></defs>
    <g id="Page-1" stroke="none" stroke-width="1" fill="none" fill-rule="evenodd">
        <g id="img" fill="#AAAAAA">
            <path d="M24.4120186,9.47755144 L23.4290186,4.99655144 C23.2810186,4.32155144 22.6140186,3.89555144 21.9400186,4.04355144 L4.47301861,7.87555144 C3.79901861,8.02355144 3.37201861,8.68955144 3.52001861,9.36355144 L5.63501861,19.0075514 L5.15301861,22.9055514 C5.06801861,23.5905514 5.55401861,24.2145514 6.23901861,24.2995514 L23.9860186,26.4995514 C24.6710186,26.5845514 25.2950186,26.0975514 25.3800186,25.4125514 L27.0930186,11.5905514 C27.1790186,10.9045514 26.6920186,10.2805514 26.0070186,10.1965514 L25.0730186,10.0795514 C24.7470186,10.0395514 24.4830186,9.79855144 24.4120186,9.47755144 L24.4120186,9.47755144 Z M22.2140186,9.72555144 L12.6860186,8.54455144 C12.3890186,8.50755144 12.3680186,8.08455144 12.6610186,8.01855144 L21.1840186,6.10155144 C21.5340186,6.02355144 21.8820186,6.24355144 21.9610186,6.59355144 L22.5750186,9.32655144 C22.6250186,9.54955144 22.4400186,9.75355144 22.2140186,9.72555144 L22.2140186,9.72555144 Z M5.46001861,10.2025514 C5.39301861,9.90555144 5.58001861,9.61155144 5.87701861,9.54455144 L6.37101861,9.43355144 C6.59701861,9.38255144 6.80501861,9.57155144 6.77701861,9.80155144 L6.50401861,12.0035514 C6.46001861,12.3605514 5.95101861,12.3845514 5.87201861,12.0335514 L5.46001861,10.2025514 L5.46001861,10.2025514 Z M23.0990186,24.6085514 L7.61701861,22.7715514 C7.26101861,22.7285514 7.00601861,22.4055514 7.04901861,22.0495514 L8.40501861,10.6175514 C8.44701861,10.2605514 8.77101861,10.0065514 9.12701861,10.0485514 L24.6090186,11.8855514 C24.9650186,11.9275514 25.2200186,12.2515514 25.1770186,12.6075514 L23.8210186,24.0395514 C23.7790186,24.3955514 23.4560186,24.6505514 23.0990186,24.6085514 L23.0990186,24.6085514 Z M21.9140186,21.6535514 L19.0600186,17.2455514 C18.8710186,16.9545514 18.4650186,16.9065514 18.2140186,17.1465514 L17.6910186,17.6465514 C17.3950186,17.9295514 16.9160186,17.8735514 16.6930186,17.5295514 L15.2800186,15.3465514 C15.0210186,14.9465514 14.4620186,14.8815514 14.1170186,15.2105514 L9.15901861,19.9515514 C8.84601861,20.2515514 9.02201861,20.7795514 9.45201861,20.8325514 L21.5150186,22.2925514 C21.8650186,22.3345514 22.1060186,21.9485514 21.9140186,21.6535514 Z M23.0770186,14.7735514 C23.0770186,15.5005514 22.4880186,16.0895514 21.7610186,16.0895514 C21.0340186,16.0895514 20.4450186,15.5005514 20.4450186,14.7735514 C20.4450186,14.0465514 21.0340186,13.4565514 21.7610186,13.4565514 C22.4880186,13.4565514 23.0770186,14.0465514 23.0770186,14.7735514 Z" id="photos"></path>
        </g>
    </g>
</svg>