<?xml version="1.0" encoding="UTF-8" standalone="no"?>
<svg width="30px" height="30px" viewBox="0 0 30 30" version="1.1" xmlns="http://www.w3.org/2000/svg" xmlns:xlink="http://www.w3.org/1999/xlink">
    <!-- Generator: sketchtool 3.8.2 (29753) - http://www.bohemiancoding.com/sketch -->
    <title>intro</title>
    <desc>Created with sketchtool.</desc>
    <defs></defs>
    <g id="Page-1" stroke="none" stroke-width="1" fill="none" fill-rule="evenodd">
        <g id="intro" fill="#888888">
            <path d="M12.584,8.112 C12.584,9.168 13.472,9.84 14.624,9.84 C15.776,9.84 16.664,9.168 16.664,8.112 L16.664,8.064 C16.664,7.008 15.776,6.36 14.624,6.36 C13.472,6.36 12.584,7.008 12.584,8.064 L12.584,8.112 Z M12.8,22.32 C12.8,23.328 13.616,24.144 14.624,24.144 C15.632,24.144 16.448,23.328 16.448,22.32 L16.448,12.816 C16.448,11.808 15.632,10.992 14.624,10.992 C13.616,10.992 12.8,11.808 12.8,12.816 L12.8,22.32 Z" id="i"></path>
        </g>
    </g>
</svg>