<?xml version="1.0" encoding="UTF-8" standalone="no"?>
<svg width="30px" height="30px" viewBox="0 0 30 30" version="1.1" xmlns="http://www.w3.org/2000/svg" xmlns:xlink="http://www.w3.org/1999/xlink">
    <!-- Generator: sketchtool 3.8.2 (29753) - http://www.bohemiancoding.com/sketch -->
    <title>left</title>
    <desc>Created with sketchtool.</desc>
    <defs></defs>
    <g id="Page-1" stroke="none" stroke-width="1" fill="none" fill-rule="evenodd">
        <g id="left" fill="#888888">
            <path d="M11,12.512 C11,12.872 11.12,13.16 11.36,13.472 L13.76,16.472 L11.432,19.376 C11.216,19.64 11.024,20 11.024,20.36 C11.024,21.176 11.648,21.872 12.464,21.872 C13.016,21.872 13.52,21.56 13.832,21.152 L16.736,17.432 C16.976,17.12 17.144,16.832 17.144,16.448 C17.144,16.064 16.976,15.776 16.736,15.464 L13.736,11.624 C13.472,11.288 13.04,11 12.488,11 C11.648,11 11,11.672 11,12.512 Z" id="›" transform="translate(14.072000, 16.436000) rotate(-180.000000) translate(-14.072000, -16.436000) "></path>
        </g>
    </g>
</svg>