<?xml version="1.0" encoding="UTF-8" standalone="no"?>
<svg width="30px" height="30px" viewBox="0 0 30 30" version="1.1" xmlns="http://www.w3.org/2000/svg" >
    
    <g id="Page-1" stroke="none" stroke-width="1"  fill-rule="evenodd">
        <g id="link" >
            <path d="M20.57,14.523 L23.71,11.384 C25.114,9.98 25.114,7.704 23.71,6.3 L23.463,6.053 C22.059,4.649 19.783,4.649 18.379,6.053 L15.239,9.192 C14.214,10.218 13.97,11.722 14.495,12.982 C14.624,13.294 14.534,13.655 14.295,13.894 L13.894,14.294 C13.655,14.533 13.295,14.624 12.983,14.494 C11.722,13.969 10.218,14.213 9.193,15.239 L6.053,18.378 C4.649,19.782 4.649,22.058 6.053,23.462 L6.3,23.709 C7.704,25.113 9.98,25.113 11.384,23.709 L14.524,20.57 C15.55,19.543 15.794,18.037 15.267,16.775 C15.136,16.463 15.227,16.102 15.466,15.863 L15.863,15.466 C16.103,15.227 16.464,15.136 16.776,15.267 C18.037,15.793 19.543,15.55 20.57,14.523 L20.57,14.523 Z M18.474,13.149 C18.383,13.058 18.351,12.912 18.405,12.796 C18.594,12.389 18.534,11.898 18.198,11.561 C17.861,11.225 17.37,11.165 16.963,11.354 C16.846,11.408 16.704,11.379 16.613,11.288 C16.493,11.167 16.493,10.971 16.613,10.851 L19.842,7.622 C20.428,7.036 21.378,7.036 21.963,7.622 L22.14,7.799 C22.726,8.384 22.726,9.334 22.14,9.92 L18.911,13.149 C18.791,13.269 18.595,13.269 18.474,13.149 L18.474,13.149 Z M11.284,16.609 C11.376,16.701 11.4,16.844 11.343,16.962 C11.143,17.372 11.201,17.874 11.543,18.216 C11.885,18.557 12.386,18.616 12.797,18.416 C12.914,18.359 13.054,18.379 13.146,18.471 C13.264,18.59 13.272,18.789 13.154,18.907 L9.921,22.14 C9.335,22.726 8.385,22.726 7.799,22.14 L7.623,21.963 C7.037,21.377 7.037,20.428 7.623,19.842 L10.856,16.609 C10.974,16.491 11.165,16.491 11.284,16.609 L11.284,16.609 Z"></path>
        </g>
    </g>
</svg>