<?xml version="1.0" encoding="UTF-8" standalone="no"?>
<svg width="30px" height="30px" viewBox="0 0 30 30" version="1.1" xmlns="http://www.w3.org/2000/svg" xmlns:xlink="http://www.w3.org/1999/xlink">
    <!-- Generator: sketchtool 3.8.2 (29753) - http://www.bohemiancoding.com/sketch -->
    <title>logout</title>
    <desc>Created with sketchtool.</desc>
    <defs></defs>
    <g id="Page-1" stroke="none" stroke-width="1" fill="none" fill-rule="evenodd">
        <g id="logout" fill="#888888">
            <path d="M8,4.93419392 L8,4.95234398 C8,5.46908667 8.44144144,5.8865379 8.98536036,5.8865379 L21.3626126,5.8865379 C21.740991,5.8865379 22.0484234,6.17800641 22.0484234,6.53780452 L22.0484234,23.4525866 C22.0484234,23.8123847 21.740991,24.1038532 21.3626126,24.1038532 L8.98536036,24.1038532 C8.44144144,24.1038532 8,24.5223721 8,25.0380472 L8,25.0658061 C8,25.5814811 8.44144144,26 8.98536036,26 L22.5304054,26 C23.3423423,26 24,25.3764923 24,24.6067165 L24,5.39328351 C24,4.62350772 23.3423423,4 22.5304054,4 L8.98536036,4 C8.44144144,4 8,4.41745123 8,4.93419392 Z M11.8868821,10.5397175 L11.8868821,12.1775799 C11.8868821,12.5804965 12.1912759,12.9073206 12.5665399,12.9073206 L16.2715463,12.9073206 C16.6735319,12.9073206 17,13.2578456 17,13.6894529 L17,16.2890761 C17,16.7206834 16.6735319,17.069961 16.2715463,17.069961 L12.5665399,17.069961 C12.1912759,17.069961 11.8868821,17.396785 11.8868821,17.8009491 L11.8868821,19.4612651 C11.8868821,19.9178208 11.39079,20.1660574 11.0643219,19.8741611 L6.24397972,15.5593354 C5.91867343,15.2686866 5.91867343,14.732296 6.24397972,14.4416471 L11.0643219,10.125574 C11.39079,9.83367777 11.8868821,10.0831618 11.8868821,10.5397175 Z" id="login" transform="translate(15.000000, 15.000000) scale(-1, 1) translate(-15.000000, -15.000000) "></path>
        </g>
    </g>
</svg>