<?xml version="1.0" encoding="UTF-8" standalone="no"?>
<svg width="30px" height="30px" viewBox="0 0 30 30" version="1.1" xmlns="http://www.w3.org/2000/svg" xmlns:xlink="http://www.w3.org/1999/xlink">
    <!-- Generator: sketchtool 3.8.2 (29753) - http://www.bohemiancoding.com/sketch -->
    <title>metadata</title>
    <desc>Created with sketchtool.</desc>
    <defs></defs>
    <g id="Page-1" stroke="none" stroke-width="1" fill="none" fill-rule="evenodd">
        <g id="metadata" fill="#888888">
            <path d="M20.6495,4.00421392 L15.8225,4.32421392 C15.2935,4.36021392 14.7945,4.58621392 14.4195,4.96121392 L4.4275,14.9542139 C3.8575,15.5232139 3.8575,16.4462139 4.4275,17.0162139 L12.2685,24.8582139 C12.8385,25.4272139 13.7615,25.4272139 14.3315,24.8582139 L24.3245,14.8652139 C24.6995,14.4902139 24.9255,13.9912139 24.9605,13.4622139 L25.2805,8.63521392 C25.3175,8.07121392 25.1095,7.51721392 24.7095,7.11721392 L22.1685,4.57521392 C21.7675,4.17521392 21.2145,3.96721392 20.6495,4.00421392 L20.6495,4.00421392 Z M21.9575,9.83221392 C21.2245,10.5642139 20.0375,10.5642139 19.3055,9.83221392 C18.5735,9.09921392 18.5735,7.91221392 19.3055,7.18021392 C20.0375,6.44821392 21.2245,6.44821392 21.9575,7.18021392 C22.6895,7.91221392 22.6895,9.09921392 21.9575,9.83221392 L21.9575,9.83221392 Z" id="tag"></path>
        </g>
    </g>
</svg>