<?xml version="1.0" encoding="UTF-8" standalone="no"?>
<svg width="100px" height="30px" viewBox="0 0 100 30" version="1.1" xmlns="http://www.w3.org/2000/svg" xmlns:xlink="http://www.w3.org/1999/xlink">
    <!-- Generator: sketchtool 3.8.2 (29753) - http://www.bohemiancoding.com/sketch -->
    <title>morrr-logo</title>
    <desc>Created with sketchtool.</desc>
    <defs></defs>
    <g id="Page-1" stroke="none" stroke-width="1" fill="none" fill-rule="evenodd">
        <g id="morrr-logo" fill="#000000">
            <g id="Imported-Layers" transform="translate(6.000000, 6.000000)">
                <polyline id="Fill-1" points="6.07647525 11.7425455 4.44742229 4.61184848 3.93038331 4.61184848 3.93038331 13.8290736 4.8611802 14.7804372 5.94721551 14.7804372 5.94721551 17.1044827 0 17.1044827 0 14.7804372 0.698256072 14.7804372 1.62905296 13.8290736 1.62905296 5.32504762 0.698256072 4.37368398 0 4.37368398 0 2.04963853 5.97319418 2.04963853 7.49896607 9.65601732 9.07606168 2.04963853 14.9459748 2.04963853 14.9459748 4.37368398 14.2477187 4.37368398 13.3169218 5.32504762 13.3169218 13.8290736 14.2477187 14.7804372 14.9459748 14.7804372 14.9459748 17.1044827 8.99875928 17.1044827 8.99875928 14.7804372 10.084161 14.7804372 11.0155915 13.8290736 11.0155915 4.61184848 10.4985525 4.61184848 8.86949954 11.7425455 6.07647525 11.7425455"></polyline>
                <path d="M23.6405935,5.5360303 C27.2351549,5.5360303 29.9502432,8.12477489 29.9502432,11.5050281 C29.9502432,14.8859286 27.2351549,17.474026 23.6405935,17.474026 C20.0466657,17.474026 17.3315774,14.8859286 17.3315774,11.5050281 C17.3315774,8.12477489 20.0466657,5.5360303 23.6405935,5.5360303 L23.6405935,5.5360303 Z M23.6405935,7.96621429 C21.4685229,7.96621429 20.0466657,9.44503463 20.0466657,11.5050281 C20.0466657,13.5650216 21.4685229,15.0444892 23.6405935,15.0444892 C25.8126641,15.0444892 27.2351549,13.5650216 27.2351549,11.5050281 C27.2351549,9.44503463 25.8126641,7.96621429 23.6405935,7.96621429 L23.6405935,7.96621429 Z" id="Fill-2"></path>
                <path d="M44.0908791,8.28268831 C44.1941602,8.28268831 44.3493986,8.30922294 44.4273346,8.33575758 C44.3753772,8.25680087 44.2980749,8.15066234 44.1688151,8.045171 C43.9616193,7.86007576 43.5998188,7.72869697 43.0048438,7.72869697 C41.3244671,7.72869697 39.9019763,9.04895671 37.8851441,11.4260714 L37.8851441,13.8290736 L38.815941,14.7804372 L42.9015627,14.7804372 L42.9015627,17.1044827 L32.9720065,17.1044827 L32.9720065,14.7804372 L34.6270382,14.7804372 L35.5578351,13.8290736 L35.5578351,9.18098268 L34.6270382,8.23026623 L32.9720065,8.23026623 L32.9720065,5.90557359 L37.8851441,5.90557359 L37.8851441,8.67941342 C39.3070013,6.8304026 40.9880116,5.5360303 42.9275414,5.5360303 C45.616651,5.5360303 46.6767076,7.41157576 46.6767076,8.99588745 C46.6767076,10.1847684 45.9271278,11.5580974 44.4526796,11.5580974 C43.392623,11.5580974 42.5397621,11.0293463 42.5397621,9.76215584 C42.5397621,8.8903961 43.1860609,8.28268831 44.0908791,8.28268831" id="Fill-3"></path>
                <path d="M60.8173435,8.28268831 C60.9206246,8.28268831 61.075863,8.30922294 61.153799,8.33575758 C61.1018417,8.25680087 61.0239056,8.15066234 60.8946459,8.045171 C60.6880837,7.86007576 60.3256496,7.72869697 59.7313082,7.72869697 C58.0502979,7.72869697 56.6284407,9.04895671 54.6116085,11.4260714 L54.6116085,13.8290736 L55.5424054,14.7804372 L59.6280271,14.7804372 L59.6280271,17.1044827 L49.6984709,17.1044827 L49.6984709,14.7804372 L51.3535026,14.7804372 L52.2842995,13.8290736 L52.2842995,9.18098268 L51.3535026,8.23026623 L49.6984709,8.23026623 L49.6984709,5.90557359 L54.6116085,5.90557359 L54.6116085,8.67941342 C56.0334657,6.8304026 57.714476,5.5360303 59.6540058,5.5360303 C62.3431154,5.5360303 63.403172,7.41157576 63.403172,8.99588745 C63.403172,10.1847684 62.6529586,11.5580974 61.1791441,11.5580974 C60.1190874,11.5580974 59.2655929,11.0293463 59.2655929,9.76215584 C59.2655929,8.8903961 59.9125253,8.28268831 60.8173435,8.28268831" id="Fill-4"></path>
                <path d="M77.5438079,8.28268831 C77.647089,8.28268831 77.8023274,8.30922294 77.8796298,8.33575758 C77.8283061,8.25680087 77.75037,8.15066234 77.6211103,8.045171 C77.4145482,7.86007576 77.052114,7.72869697 76.4577726,7.72869697 C74.7767623,7.72869697 73.3542715,9.04895671 71.3374393,11.4260714 L71.3374393,13.8290736 L72.2682362,14.7804372 L76.3544915,14.7804372 L76.3544915,17.1044827 L66.4249354,17.1044827 L66.4249354,14.7804372 L68.079967,14.7804372 L69.0107639,13.8290736 L69.0107639,9.18098268 L68.079967,8.23026623 L66.4249354,8.23026623 L66.4249354,5.90557359 L71.3374393,5.90557359 L71.3374393,8.67941342 C72.7599301,6.8304026 74.4403068,5.5360303 76.3798366,5.5360303 C79.0689462,5.5360303 80.1296364,7.41157576 80.1296364,8.99588745 C80.1296364,10.1847684 79.379423,11.5580974 77.9056085,11.5580974 C76.8455518,11.5580974 75.9920573,11.0293463 75.9920573,9.76215584 C75.9920573,8.8903961 76.6383561,8.28268831 77.5438079,8.28268831" id="Fill-5"></path>
                <path d="M85.4001392,7.6943961 C83.4282944,7.6943961 81.8245865,6.15797619 81.8245865,4.02485065 C81.8245865,1.87489827 83.4282944,0.338478355 85.4001392,0.338478355 C87.3719839,0.338478355 88.9921661,1.87489827 88.9921661,4.02485065 C88.9921661,6.15797619 87.3719839,7.6943961 85.4001392,7.6943961 L85.4001392,7.6943961 Z M85.4001392,0.953305195 C83.7628491,0.953305195 82.4759542,2.23279221 82.4759542,4.02485065 C82.4759542,5.80008225 83.7628491,7.06274242 85.4001392,7.06274242 C87.0374293,7.06274242 88.3243241,5.80008225 88.3243241,4.02485065 C88.3243241,2.23279221 87.0374293,0.953305195 85.4001392,0.953305195 L85.4001392,0.953305195 Z M86.336005,5.90233766 C86.2352585,5.76578139 86.185202,5.56062338 86.1186713,5.15160173 C86.0686148,4.70763203 85.9178118,4.48564719 85.51736,4.48564719 L84.7316635,4.48564719 L84.7316635,5.90233766 L83.9130185,5.90233766 L83.9130185,2.06258225 L85.6675294,2.06258225 C86.6198696,2.06258225 87.0874857,2.48907792 87.0874857,3.22298701 C87.0874857,3.76921212 86.5698131,4.12710606 86.0515069,4.16140693 C86.5197566,4.2468355 86.8372034,4.50312121 86.9037341,4.94644372 C86.9873728,5.5269697 87.0874857,5.74830736 87.2211808,5.90233766 L86.336005,5.90233766 L86.336005,5.90233766 Z M85.5002521,3.82033983 C86.0014504,3.82033983 86.2523664,3.68378355 86.2523664,3.27411472 C86.2523664,2.91557359 86.0014504,2.72788961 85.5002521,2.72788961 L84.7316635,2.72788961 L84.7316635,3.82033983 L85.5002521,3.82033983 L85.5002521,3.82033983 Z" id="Fill-6"></path>
            </g>
        </g>
    </g>
</svg>