<?xml version="1.0" encoding="UTF-8" standalone="no"?>
<svg width="30px" height="30px" viewBox="0 0 30 30" version="1.1" xmlns="http://www.w3.org/2000/svg" >
    
    <g id="Page-1" stroke="none" stroke-width="1"  fill-rule="evenodd">
        <g id="numbered" >
            <path d="M15,7 C10.5822863,7 7,10.5822863 7,15 C7,19.4185376 10.5822863,23 15,23 C19.4185376,23 23,19.4185376 23,15 C23,10.5822863 19.4185376,7 15,7 Z M14.314,18.82 C14.314,19.366 14.756,19.808 15.302,19.808 C15.848,19.808 16.29,19.366 16.29,18.82 L16.29,11.488 C16.29,10.942 15.848,10.5 15.302,10.5 L15.276,10.5 C15.003,10.5 14.717,10.565 14.34,10.669 L13.053,11.046 C12.65,11.163 12.39,11.501 12.39,11.904 C12.39,12.372 12.793,12.762 13.261,12.762 C13.365,12.762 13.508,12.736 13.612,12.71 L14.314,12.528 L14.314,18.82 Z" id="Combined-Shape"></path>
        </g>
    </g>
</svg>