<?xml version="1.0" encoding="UTF-8" standalone="no"?>
<svg width="30px" height="30px" viewBox="0 0 30 30" version="1.1" xmlns="http://www.w3.org/2000/svg" xmlns:xlink="http://www.w3.org/1999/xlink">
    <!-- Generator: sketchtool 3.8.2 (29753) - http://www.bohemiancoding.com/sketch -->
    <title>preview</title>
    <desc>Created with sketchtool.</desc>
    <defs></defs>
    <g id="Page-1" stroke="none" stroke-width="1" fill="none" fill-rule="evenodd">
        <g id="preview" fill="#AAAAAA">
            <path d="M26.8409365,14.087 C25.3569365,12.078 21.5519365,8 15.1119365,8 C8.69593648,8 4.86093648,12.088 3.36593648,14.094 C2.88493648,14.74 2.87693648,15.626 3.34893648,16.278 C4.80493648,18.29 8.55893648,22.357 15.1119365,22.357 C21.5829365,22.357 25.3699365,18.284 26.8449365,16.274 C27.3219365,15.624 27.3199365,14.735 26.8409365,14.087 L26.8409365,14.087 Z M15.1019365,20.108 C12.3789365,20.108 10.1719365,17.901 10.1719365,15.179 C10.1719365,12.456 12.3789365,10.249 15.1019365,10.249 C17.8239365,10.249 20.0309365,12.456 20.0309365,15.179 C20.0309365,17.901 17.8239365,20.108 15.1019365,20.108 L15.1019365,20.108 Z M17.7629365,15.179 C17.7629365,16.648 16.5709365,17.84 15.1019365,17.84 C13.6319365,17.84 12.4409365,16.648 12.4409365,15.179 C12.4409365,13.709 13.6319365,12.518 15.1019365,12.518 C16.5709365,12.518 17.7629365,13.709 17.7629365,15.179 L17.7629365,15.179 Z" id="eye"></path>
        </g>
    </g>
</svg>