<?xml version="1.0" encoding="UTF-8" standalone="no"?>
<svg width="30px" height="30px" viewBox="0 0 30 30" version="1.1" xmlns="http://www.w3.org/2000/svg" xmlns:xlink="http://www.w3.org/1999/xlink">
    <!-- Generator: sketchtool 3.8.2 (29753) - http://www.bohemiancoding.com/sketch -->
    <title>publish</title>
    <desc>Created with sketchtool.</desc>
    <defs></defs>
    <g id="Page-1" stroke="none" stroke-width="1" fill="none" fill-rule="evenodd">
        <g id="publish" fill="#AAAAAA">
            <path d="M15,5 C9.47785788,5 5,9.47762731 5,14.9994851 C5,20.5223727 9.47785788,25 15,25 C20.523172,25 25,20.5223727 25,14.9994851 C25,9.47762731 20.523172,5 15,5 L15,5 L15,5 Z M19.1735372,15.6406137 L15.7386842,18.7698167 C15.3032204,19.1674983 14.5576215,18.8859281 14.5576215,18.3247229 L14.5576215,16.7040008 C14.5576215,16.3556665 14.2474864,16.0731287 13.865128,16.0731287 L10.6947395,16.0731287 C10.0266744,16.0731287 9.485,15.5806227 9.485,14.9720053 L9.485,14.9497507 C9.485,14.3411332 10.0266744,13.8476597 10.6947395,13.8476597 L13.865128,13.8476597 C14.2474864,13.8476597 14.5576215,13.5660895 14.5576215,13.2177552 L14.5576215,11.5873572 C14.5576215,11.026152 15.3032204,10.7445817 15.7386842,11.1422634 L19.1735372,14.2714664 C19.5888209,14.6497961 19.5888209,15.2622839 19.1735372,15.6406137 L19.1735372,15.6406137 L19.1735372,15.6406137 Z" id="arrowcircleright"></path>
        </g>
    </g>
</svg>