<?xml version="1.0" encoding="UTF-8" standalone="no"?>
<svg width="30px" height="30px" viewBox="0 0 30 30" version="1.1" xmlns="http://www.w3.org/2000/svg" xmlns:xlink="http://www.w3.org/1999/xlink">
    <!-- Generator: sketchtool 3.8.1 (29687) - http://www.bohemiancoding.com/sketch -->
    <title>quote</title>
    <desc>Created with sketchtool.</desc>
    <defs></defs>
    <g id="Page-1" stroke="none" stroke-width="1" fill="none" fill-rule="evenodd">
        <g id="quote" fill="#AAAAAA">
            <path d="M23.576,11.844 C23.576,11.196 23.18,10.62 22.208,10.62 C20.876,10.62 19.256,11.268 18.176,12.348 C16.844,13.68 16.052,15.624 16.052,18.252 L16.052,18.396 C16.052,20.88 17.24,22.428 19.256,22.428 C21.056,22.428 22.244,21.168 22.244,19.476 L22.244,19.404 C22.244,17.856 20.984,16.776 19.724,16.452 C19.652,14.724 20.66,13.464 22.496,13.032 C23.108,12.888 23.576,12.492 23.576,11.844 L23.576,11.844 Z M14.432,11.844 C14.432,11.196 14.036,10.62 13.064,10.62 C11.732,10.62 10.112,11.268 9.032,12.348 C7.7,13.68 6.908,15.624 6.908,18.252 L6.908,18.396 C6.908,20.88 8.096,22.428 10.112,22.428 C11.912,22.428 13.1,21.168 13.1,19.476 L13.1,19.404 C13.1,17.856 11.84,16.776 10.58,16.452 C10.508,14.724 11.516,13.464 13.352,13.032 C13.964,12.888 14.432,12.492 14.432,11.844 L14.432,11.844 Z" id="“"></path>
        </g>
    </g>
</svg>