<?xml version="1.0" encoding="UTF-8" standalone="no"?>
<svg width="30px" height="30px" viewBox="0 0 30 30" version="1.1" xmlns="http://www.w3.org/2000/svg" xmlns:xlink="http://www.w3.org/1999/xlink">
    <!-- Generator: sketchtool 3.8.1 (29687) - http://www.bohemiancoding.com/sketch -->
    <title>return</title>
    <desc>Created with sketchtool.</desc>
    <defs></defs>
    <g id="Page-1" stroke="none" stroke-width="1" fill="none" fill-rule="evenodd">
        <g id="return" fill="#AAAAAA">
            <path d="M16.016,11 C15.176,11 14.528,11.672 14.528,12.512 C14.528,12.872 14.648,13.16 14.888,13.472 L17.288,16.472 L14.96,19.376 C14.744,19.64 14.552,20 14.552,20.36 C14.552,21.176 15.176,21.872 15.992,21.872 C16.544,21.872 17.048,21.56 17.36,21.152 L20.264,17.432 C20.504,17.12 20.672,16.832 20.672,16.448 C20.672,16.064 20.504,15.776 20.264,15.464 L17.264,11.624 C17,11.288 16.568,11 16.016,11 L16.016,11 Z M9.488,11 C8.648,11 8,11.672 8,12.512 C8,12.872 8.12,13.16 8.36,13.472 L10.76,16.472 L8.432,19.376 C8.216,19.64 8.024,20 8.024,20.36 C8.024,21.176 8.648,21.872 9.464,21.872 C10.016,21.872 10.52,21.56 10.832,21.152 L13.736,17.432 C13.976,17.12 14.144,16.832 14.144,16.448 C14.144,16.064 13.976,15.776 13.736,15.464 L10.736,11.624 C10.472,11.288 10.04,11 9.488,11 L9.488,11 Z" id="»" transform="translate(14.936000, 16.928000) rotate(-270.000000) translate(-14.936000, -16.928000) "></path>
        </g>
    </g>
</svg>