<?xml version="1.0" encoding="UTF-8" standalone="no"?>
<svg width="30px" height="30px" viewBox="0 0 30 30" version="1.1" xmlns="http://www.w3.org/2000/svg" xmlns:xlink="http://www.w3.org/1999/xlink">
    <!-- Generator: sketchtool 3.8.2 (29753) - http://www.bohemiancoding.com/sketch -->
    <title>right</title>
    <desc>Created with sketchtool.</desc>
    <defs></defs>
    <g id="Page-1" stroke="none" stroke-width="1" fill="none" fill-rule="evenodd">
        <g id="right" fill="#888888">
            <path d="M13,12.512 C13,12.872 13.12,13.16 13.36,13.472 L15.76,16.472 L13.432,19.376 C13.216,19.64 13.024,20 13.024,20.36 C13.024,21.176 13.648,21.872 14.464,21.872 C15.016,21.872 15.52,21.56 15.832,21.152 L18.736,17.432 C18.976,17.12 19.144,16.832 19.144,16.448 C19.144,16.064 18.976,15.776 18.736,15.464 L15.736,11.624 C15.472,11.288 15.04,11 14.488,11 C13.648,11 13,11.672 13,12.512 Z" id="›" transform="translate(16.072000, 16.436000) rotate(-360.000000) translate(-16.072000, -16.436000) "></path>
        </g>
    </g>
</svg>