<?xml version="1.0" encoding="UTF-8" standalone="no"?>
<svg width="30px" height="30px" viewBox="0 0 30 30" version="1.1" xmlns="http://www.w3.org/2000/svg" xmlns:xlink="http://www.w3.org/1999/xlink">
    <!-- Generator: sketchtool 3.8.2 (29753) - http://www.bohemiancoding.com/sketch -->
    <title>save</title>
    <desc>Created with sketchtool.</desc>
    <defs></defs>
    <g id="Page-1" stroke="none" stroke-width="1" fill="none" fill-rule="evenodd">
        <g id="save" fill="#888888">
            <path d="M14.71965,11.2261546 L13.0121025,11.2261546 C12.5334177,11.2261546 12.14455,10.8421359 12.14455,10.3671655 L12.14455,5.85898902 C12.14455,5.3850292 12.5334177,5 13.0121025,5 L14.71965,5 C15.1993555,5 15.5872024,5.3850292 15.5872024,5.85898902 L15.5872024,10.3671655 C15.5872024,10.8421359 15.1993555,11.2261546 14.71965,11.2261546 Z M21.068093,5.85898902 L21.068093,12.372147 C21.068093,12.8471174 20.6802459,13.231136 20.2005404,13.231136 L11.2188204,13.231136 C10.7401356,13.231136 10.3512679,12.8471174 10.3512679,12.372147 L10.3512679,5.85898902 C10.3512679,5.3850292 9.96342095,5 9.48371545,5 L8.9927828,5 C8.72026925,5 8.45898285,5.10712098 8.26710065,5.29811972 L5.20413,8.32984569 C4.9673392,8.56530974 4.83363405,8.88364096 4.83363405,9.21612024 L4.83363405,23.6764425 C4.83363405,24.3828347 5.41132195,24.9548203 6.1247563,24.9548203 L23.6901428,24.9548203 C24.4035772,24.9548203 24.981265,24.3828347 24.981265,23.6764425 L24.981265,6.27837778 C24.981265,5.57299621 24.4035772,5 23.6901428,5 L21.9356455,5 C21.4569606,5 21.068093,5.3850292 21.068093,5.85898902 Z" id="floppydisc"></path>
        </g>
    </g>
</svg>