<?xml version="1.0" encoding="UTF-8" standalone="no"?>
<svg width="30px" height="30px" viewBox="0 0 30 30" version="1.1" xmlns="http://www.w3.org/2000/svg" xmlns:xlink="http://www.w3.org/1999/xlink">
    <!-- Generator: sketchtool 3.8.2 (29753) - http://www.bohemiancoding.com/sketch -->
    <title>search</title>
    <desc>Created with sketchtool.</desc>
    <defs></defs>
    <g id="Page-1" stroke="none" stroke-width="1" fill="none" fill-rule="evenodd">
        <g id="search" fill="#888888">
            <path d="M20.3400009,18.1233135 C19.9506585,17.7692814 19.8512321,17.1987415 20.0965457,16.7332032 C20.8334157,15.3347298 21.1679342,13.6909429 20.9477095,11.9560926 C20.5091186,8.51055167 17.7911554,5.67364862 14.3632697,5.11147164 C8.88645781,4.21291767 4.21713655,8.87852206 5.1101152,14.3553339 C5.66857532,17.7785736 8.49525696,20.4965367 11.9361518,20.9444199 C13.6672852,21.1692907 15.3082845,20.8394182 16.7067579,20.1081235 C17.1676501,19.867456 17.7307563,19.9650239 18.0838592,20.3469326 L22.4140158,25.0218292 C23.1703994,25.8386119 24.5224118,25.779142 25.2351221,24.8852341 C25.8502646,24.1130538 25.6755715,22.9701155 24.9442769,22.3066537 L20.3400009,18.1233135 Z M7.06147334,13.0070384 C7.06147334,9.72318137 9.72368337,7.06190056 13.0075404,7.06190056 C16.2904681,7.06190056 18.9526781,9.72318137 18.9526781,13.0070384 C18.9526781,16.2908953 16.2904681,18.9521761 13.0075404,18.9521761 C9.72368337,18.9521761 7.06147334,16.2908953 7.06147334,13.0070384 L7.06147334,13.0070384 Z"></path>
        </g>
    </g>
</svg>