<?xml version="1.0" encoding="UTF-8" standalone="no"?>
<svg width="30px" height="30px" viewBox="0 0 30 30" version="1.1" xmlns="http://www.w3.org/2000/svg" xmlns:xlink="http://www.w3.org/1999/xlink">
    <!-- Generator: sketchtool 3.8.2 (29753) - http://www.bohemiancoding.com/sketch -->
    <title>spinner</title>
    <desc>Created with sketchtool.</desc>
    <defs></defs>
    <g id="Page-1" stroke="none" stroke-width="1" fill="none" fill-rule="evenodd">
        <g id="spinner" fill="#888888">
            <path d="M16.1631787,7.16570088 C15.821387,7.1376044 15.5497318,6.8750476 15.5497318,6.53788979 L15.5497318,5.33652289 C15.5497318,5.05943342 15.226709,4.90151181 15.0004943,5.06815302 L11.2546156,7.84098534 C10.9157874,8.09191601 10.9147996,8.59087081 11.2536277,8.84180148 L15.0004943,11.6233534 C15.2257212,11.7909635 15.5497318,11.6330418 15.5497318,11.3559524 L15.5497318,10.2475945 C15.5497318,9.86102566 15.9033775,9.56068393 16.2935732,9.61784574 C19.0328458,10.0257292 21.0411188,12.6154499 20.41483,15.5239205 C20.2893747,16.1071647 20.0493303,16.6535929 19.7203805,17.1409215 C19.3608077,17.6747547 19.5040441,18.3916995 20.0364884,18.761798 L20.057233,18.7753618 C20.6015313,19.15418 21.3779713,19.0476071 21.7493981,18.5031166 C22.5376922,17.3443788 23,15.9540873 23,14.4562541 C23,10.6215684 19.9920357,7.47669989 16.1631787,7.16570088 Z M13.8368213,22.8342991 C14.178613,22.8623956 14.4502682,23.1249524 14.4502682,23.4621102 L14.4502682,24.6634771 C14.4502682,24.9405666 14.773291,25.0984882 14.9995057,24.931847 L18.7453844,22.1590147 C19.0842126,21.908084 19.0852004,21.4091292 18.7463723,21.1581985 L14.9995057,18.3766466 C14.7742788,18.2090365 14.4502682,18.3669582 14.4502682,18.6440476 L14.4502682,19.7524055 C14.4502682,20.1389743 14.0966225,20.4393161 13.7064268,20.3821543 C10.9671542,19.9742708 8.95888119,17.3845501 9.58516998,14.4760795 C9.7106253,13.8928353 9.95066974,13.3464071 10.2796195,12.8590785 C10.6391923,12.3252453 10.4959559,11.6083005 9.96351163,11.238202 L9.94276705,11.2246382 C9.39846874,10.84582 8.6220287,10.9523929 8.25060191,11.4968834 C7.46230781,12.6556212 7,14.0459127 7,15.5437459 C7,19.3784316 10.0079643,22.5233001 13.8368213,22.8342991 Z" id="sync"></path>
        </g>
    </g>
</svg>