<?xml version="1.0" encoding="UTF-8" standalone="no"?>
<svg width="30px" height="30px" viewBox="0 0 30 30" version="1.1" xmlns="http://www.w3.org/2000/svg" xmlns:xlink="http://www.w3.org/1999/xlink">
    <!-- Generator: sketchtool 3.8.2 (29753) - http://www.bohemiancoding.com/sketch -->
    <title>text</title>
    <desc>Created with sketchtool.</desc>
    <defs></defs>
    <g id="Page-1" stroke="none" stroke-width="1" fill="none" fill-rule="evenodd">
        <g id="text" fill="#AAAAAA">
            <path d="M5.07316072,5.39100439 L5.07316072,25.6089956 C5.07316072,26.3776543 5.74646771,27 6.57558129,27 L23.5707402,27 C24.3998537,27 25.0731607,26.3776543 25.0731607,25.6089956 L25.0731607,5.39100439 C25.0731607,4.62234567 24.3998537,4 23.5707402,4 L6.57558129,4 C5.74646771,4 5.07316072,4.62234567 5.07316072,5.39100439 L5.07316072,5.39100439 Z M22.3319448,25.0000448 L7.8143766,25.0000448 C7.40499737,25.0000448 7.07316072,24.6991757 7.07316072,24.3303019 L7.07316072,6.6717588 C7.07316072,6.30185467 7.40499737,6.00201595 7.8143766,6.00201595 L22.3319448,6.00201595 C22.7413241,6.00201595 23.0731607,6.30185467 23.0731607,6.6717588 L23.0731607,24.3303019 C23.0731607,24.6991757 22.7413241,25.0000448 22.3319448,25.0000448 L22.3319448,25.0000448 Z M20.0731607,10.9905292 C20.072122,11.5376045 19.6587141,12 19.1497446,12 L11.9234161,12 C11.4134079,12 11,11.556546 11,11.0094708 C11,10.4635097 11.4134079,10 11.9234161,10 L19.1497446,10 C19.6597528,10 20.0731607,10.443454 20.0731607,10.9905292 Z M20.0731607,14.9899777 C20.072122,15.5367483 19.6587141,16 19.1497446,16 L11.9234161,16 C11.4134079,16 11,15.5567929 11,15.0100223 C11,14.4632517 11.4134079,14 11.9234161,14 L19.1497446,14 C19.6597528,14 20.0731607,14.4443207 20.0731607,14.9899777 Z M19.0731607,18.9899777 C19.0731607,19.5367483 18.5845479,20 17.9829894,20 L12.091399,20 C11.4886128,20 11,19.5567929 11,19.0100223 C11,18.4632517 11.4886128,18 12.091399,18 L17.9829894,18 C18.5845479,18 19.0731607,18.4432071 19.0731607,18.9899777 Z"></path>
        </g>
    </g>
</svg>