<?xml version="1.0" encoding="UTF-8" standalone="no"?>
<svg width="30px" height="30px" viewBox="0 0 30 30" version="1.1" xmlns="http://www.w3.org/2000/svg" xmlns:xlink="http://www.w3.org/1999/xlink">
    <!-- Generator: sketchtool 3.8.2 (29753) - http://www.bohemiancoding.com/sketch -->
    <title>text</title>
    <desc>Created with sketchtool.</desc>
    <defs></defs>
    <g id="Page-1" stroke="none" stroke-width="1" fill="none" fill-rule="evenodd">
        <g id="text" fill="#888888">
            <path d="M5,5.39100439 L5,25.6089956 C5,26.3776543 5.67330699,27 6.50242057,27 L23.4975794,27 C24.326693,27 25,26.3776543 25,25.6089956 L25,5.39100439 C25,4.62234567 24.326693,4 23.4975794,4 L6.50242057,4 C5.67330699,4 5,4.62234567 5,5.39100439 L5,5.39100439 Z M22.2587841,25.0000448 L7.74121588,25.0000448 C7.33183665,25.0000448 7,24.6991757 7,24.3303019 L7,6.6717588 C7,6.30185467 7.33183665,6.00201595 7.74121588,6.00201595 L22.2587841,6.00201595 C22.6681634,6.00201595 23,6.30185467 23,6.6717588 L23,24.3303019 C23,24.6991757 22.6681634,25.0000448 22.2587841,25.0000448 L22.2587841,25.0000448 Z M20,10.9905292 C19.9989613,11.5376045 19.5855534,12 19.0765839,12 L11.8502554,12 C11.3402472,12 10.9268393,11.556546 10.9268393,11.0094708 C10.9268393,10.4635097 11.3402472,10 11.8502554,10 L19.0765839,10 C19.5865921,10 20,10.443454 20,10.9905292 Z M20,14.9899777 C19.9989613,15.5367483 19.5855534,16 19.0765839,16 L11.8502554,16 C11.3402472,16 10.9268393,15.5567929 10.9268393,15.0100223 C10.9268393,14.4632517 11.3402472,14 11.8502554,14 L19.0765839,14 C19.5865921,14 20,14.4443207 20,14.9899777 Z M19,18.9899777 C19,19.5367483 18.5113872,20 17.9098287,20 L12.0182383,20 C11.4154521,20 10.9268393,19.5567929 10.9268393,19.0100223 C10.9268393,18.4632517 11.4154521,18 12.0182383,18 L17.9098287,18 C18.5113872,18 19,18.4432071 19,18.9899777 Z"></path>
        </g>
    </g>
</svg>