<?xml version="1.0" encoding="UTF-8" standalone="no"?>
<svg width="55px" height="30px" viewBox="0 0 55 30" version="1.1" xmlns="http://www.w3.org/2000/svg" xmlns:xlink="http://www.w3.org/1999/xlink">
    <!-- Generator: sketchtool 3.8.2 (29753) - http://www.bohemiancoding.com/sketch -->
    <title>text</title>
    <desc>Created with sketchtool.</desc>
    <defs></defs>
    <g id="Page-1" stroke="none" stroke-width="1" fill="none" fill-rule="evenodd">
        <g id="text" fill="#888888">
            <path d="M5.07316072,5.39100439 L5.07316072,25.6089956 C5.07316072,26.3776543 5.74646771,27 6.57558129,27 L23.5707402,27 C24.3998537,27 25.0731607,26.3776543 25.0731607,25.6089956 L25.0731607,5.39100439 C25.0731607,4.62234567 24.3998537,4 23.5707402,4 L6.57558129,4 C5.74646771,4 5.07316072,4.62234567 5.07316072,5.39100439 L5.07316072,5.39100439 Z M22.3319448,25.0000448 L7.8143766,25.0000448 C7.40499737,25.0000448 7.07316072,24.6991757 7.07316072,24.3303019 L7.07316072,6.6717588 C7.07316072,6.30185467 7.40499737,6.00201595 7.8143766,6.00201595 L22.3319448,6.00201595 C22.7413241,6.00201595 23.0731607,6.30185467 23.0731607,6.6717588 L23.0731607,24.3303019 C23.0731607,24.6991757 22.7413241,25.0000448 22.3319448,25.0000448 L22.3319448,25.0000448 Z M20.0731607,10.9905292 C20.072122,11.5376045 19.6587141,12 19.1497446,12 L11.9234161,12 C11.4134079,12 11,11.556546 11,11.0094708 C11,10.4635097 11.4134079,10 11.9234161,10 L19.1497446,10 C19.6597528,10 20.0731607,10.443454 20.0731607,10.9905292 Z M20.0731607,14.9899777 C20.072122,15.5367483 19.6587141,16 19.1497446,16 L11.9234161,16 C11.4134079,16 11,15.5567929 11,15.0100223 C11,14.4632517 11.4134079,14 11.9234161,14 L19.1497446,14 C19.6597528,14 20.0731607,14.4443207 20.0731607,14.9899777 Z M19.0731607,18.9899777 C19.0731607,19.5367483 18.5845479,20 17.9829894,20 L12.091399,20 C11.4886128,20 11,19.5567929 11,19.0100223 C11,18.4632517 11.4886128,18 12.091399,18 L17.9829894,18 C18.5845479,18 19.0731607,18.4432071 19.0731607,18.9899777 Z"></path>
            <path d="M30.0731607,5.39100439 L30.0731607,25.6089956 C30.0731607,26.3776543 30.7464677,27 31.5755813,27 L48.5707402,27 C49.3998537,27 50.0731607,26.3776543 50.0731607,25.6089956 L50.0731607,5.39100439 C50.0731607,4.62234567 49.3998537,4 48.5707402,4 L31.5755813,4 C30.7464677,4 30.0731607,4.62234567 30.0731607,5.39100439 L30.0731607,5.39100439 Z M47.3319448,25.0000448 L32.8143766,25.0000448 C32.4049974,25.0000448 32.0731607,24.6991757 32.0731607,24.3303019 L32.0731607,6.6717588 C32.0731607,6.30185467 32.4049974,6.00201595 32.8143766,6.00201595 L47.3319448,6.00201595 C47.7413241,6.00201595 48.0731607,6.30185467 48.0731607,6.6717588 L48.0731607,24.3303019 C48.0731607,24.6991757 47.7413241,25.0000448 47.3319448,25.0000448 L47.3319448,25.0000448 Z M45.0731607,10.9905292 C45.072122,11.5376045 44.6587141,12 44.1497446,12 L36.9234161,12 C36.4134079,12 36,11.556546 36,11.0094708 C36,10.4635097 36.4134079,10 36.9234161,10 L44.1497446,10 C44.6597528,10 45.0731607,10.443454 45.0731607,10.9905292 Z M45.0731607,14.9899777 C45.072122,15.5367483 44.6587141,16 44.1497446,16 L36.9234161,16 C36.4134079,16 36,15.5567929 36,15.0100223 C36,14.4632517 36.4134079,14 36.9234161,14 L44.1497446,14 C44.6597528,14 45.0731607,14.4443207 45.0731607,14.9899777 Z M44.0731607,18.9899777 C44.0731607,19.5367483 43.5845479,20 42.9829894,20 L37.091399,20 C36.4886128,20 36,19.5567929 36,19.0100223 C36,18.4632517 36.4886128,18 37.091399,18 L42.9829894,18 C43.5845479,18 44.0731607,18.4432071 44.0731607,18.9899777 Z"></path>
        </g>
    </g>
</svg>