<?xml version="1.0" encoding="UTF-8" standalone="no"?>
<svg width="30px" height="30px" viewBox="0 0 30 30" version="1.1" xmlns="http://www.w3.org/2000/svg" xmlns:xlink="http://www.w3.org/1999/xlink">
    <!-- Generator: sketchtool 3.8.2 (29753) - http://www.bohemiancoding.com/sketch -->
    <title>translate</title>
    <desc>Created with sketchtool.</desc>
    <defs></defs>
    <g id="Page-1" stroke="none" stroke-width="1" fill="none" fill-rule="evenodd">
        <g id="translate" fill="#888888">
            <path d="M15.179,5 C9.557,5 5,9.558 5,15.179 C5,20.801 9.557,25.359 15.179,25.359 C20.801,25.359 25.358,20.801 25.358,15.179 C25.358,9.558 20.801,5 15.179,5 L15.179,5 Z M11.941,7.539 C12.085,7.478 12.26,7.539 12.321,7.684 C12.446,7.982 12.187,8.342 11.094,9.193 C9.712,10.268 9.474,11.174 9.742,12.948 C10.009,14.721 11.056,14.774 11.712,16.115 C12.368,17.456 11.771,18.596 12.773,20.901 C13.212,21.821 13.777,22.396 14.009,22.858 C14.134,23.106 13.921,23.385 13.649,23.334 C9.795,22.615 6.875,19.242 6.875,15.179 C6.875,11.743 8.965,8.802 11.941,7.539 L11.941,7.539 Z M15.945,22.484 C15.884,21.784 16.428,20.359 17.492,19.251 C19.415,17.268 17.948,16.241 16.088,15.989 C14.228,15.737 12.938,16.48 12.481,15.241 C12.024,14.003 12.846,13.471 13.122,13.382 C13.398,13.293 13.929,13.002 14.789,14.034 C15.149,14.393 15.641,14.453 15.629,14.001 C15.618,13.55 15.057,12.639 15.666,11.922 C16.274,11.206 17.665,10.847 17.603,9.784 C17.54,8.721 16.638,8.276 15.565,8.556 C14.493,8.835 13.914,9.044 13.61,8.125 C13.542,7.92 13.485,7.719 13.437,7.53 C13.376,7.288 13.532,7.042 13.779,6.999 C14.234,6.919 14.701,6.875 15.179,6.875 C18.556,6.875 21.462,8.891 22.76,11.785 C23.197,12.761 22.642,13.907 21.6,14.147 C21.594,14.149 21.587,14.15 21.579,14.152 C20.306,14.44 19.698,14.949 21.141,16.173 C21.486,16.402 21.858,16.626 22.205,16.889 C22.784,17.328 22.977,18.118 22.662,18.773 C21.582,21.017 19.522,22.697 17.036,23.265 C16.518,23.383 15.997,23.013 15.945,22.484 L15.945,22.484 Z" id="earth"></path>
        </g>
    </g>
</svg>