<?xml version="1.0" encoding="UTF-8" standalone="no"?>
<svg width="30px" height="30px" viewBox="0 0 30 30" version="1.1" xmlns="http://www.w3.org/2000/svg" xmlns:xlink="http://www.w3.org/1999/xlink">
    <!-- Generator: sketchtool 3.8.2 (29753) - http://www.bohemiancoding.com/sketch -->
    <title>up</title>
    <desc>Created with sketchtool.</desc>
    <defs></defs>
    <g id="Page-1" stroke="none" stroke-width="1" fill="none" fill-rule="evenodd">
        <g id="up" fill="#888888">
            <path d="M12,10.512 C12,10.872 12.12,11.16 12.36,11.472 L14.76,14.472 L12.432,17.376 C12.216,17.64 12.024,18 12.024,18.36 C12.024,19.176 12.648,19.872 13.464,19.872 C14.016,19.872 14.52,19.56 14.832,19.152 L17.736,15.432 C17.976,15.12 18.144,14.832 18.144,14.448 C18.144,14.064 17.976,13.776 17.736,13.464 L14.736,9.624 C14.472,9.288 14.04,9 13.488,9 C12.648,9 12,9.672 12,10.512 Z" id="›" transform="translate(15.072000, 14.436000) rotate(-90.000000) translate(-15.072000, -14.436000) "></path>
        </g>
    </g>
</svg>