<?xml version="1.0" encoding="UTF-8" standalone="no"?>
<svg width="30px" height="30px" viewBox="0 0 30 30" version="1.1" xmlns="http://www.w3.org/2000/svg" xmlns:xlink="http://www.w3.org/1999/xlink">
    <!-- Generator: sketchtool 3.8.2 (29753) - http://www.bohemiancoding.com/sketch -->
    <title>video</title>
    <desc>Created with sketchtool.</desc>
    <defs></defs>
    <g id="Page-1" stroke="none" stroke-width="1" fill="none" fill-rule="evenodd">
        <g id="video" fill="#AAAAAA">
            <path d="M24.3725494,13.0921255 L10.1775494,13.0921255 C9.80654936,13.0921255 9.72954936,12.5593809 10.0855494,12.4505952 L23.4905494,8.35334145 C24.1485494,8.15305385 24.5235494,7.45052225 24.3315494,6.78052467 L23.7965494,4.91591836 C23.6015494,4.23778727 22.9015494,3.85144572 22.2365494,4.05376669 L5.89054936,9.04977292 C5.23754936,9.24904382 4.86154936,9.94445861 5.04754936,10.6124228 L5.29654936,11.5091419 C5.58854936,12.5593809 5.73554936,13.645204 5.73554936,14.7371272 L5.73554936,24.7820074 C5.73554936,25.4550551 6.27354936,26 6.93554936,26 L24.3725494,26 C25.0345494,26 25.5715494,25.4550551 25.5715494,24.7820074 L25.5715494,14.3111348 C25.5715494,13.6380871 25.0345494,13.0921255 24.3725494,13.0921255 L24.3725494,13.0921255 Z M21.7155494,21.8142943 C21.7155494,22.2087694 21.4005494,22.5290262 21.0125494,22.5290262 L10.2625494,22.5290262 C9.87354936,22.5290262 9.55954936,22.2087694 9.55954936,21.8142943 L9.55954936,21.2418988 C9.55954936,20.8464071 9.87354936,20.527167 10.2625494,20.527167 L21.0125494,20.527167 C21.4005494,20.527167 21.7155494,20.8464071 21.7155494,21.2418988 L21.7155494,21.8142943 L21.7155494,21.8142943 Z M21.7155494,17.8746272 C21.7155494,18.2691023 21.4005494,18.5893591 21.0125494,18.5893591 L10.2625494,18.5893591 C9.87354936,18.5893591 9.55954936,18.2691023 9.55954936,17.8746272 L9.55954936,17.3022317 C9.55954936,16.90674 9.87354936,16.5874999 10.2625494,16.5874999 L21.0125494,16.5874999 C21.4005494,16.5874999 21.7155494,16.90674 21.7155494,17.3022317 L21.7155494,17.8746272 L21.7155494,17.8746272 Z" id="slate"></path>
        </g>
    </g>
</svg>